# xmcd
#
# Track frame offsets:
#	150
#	24831
#	49433
#	66039
#	83604
#	99038
#	122321
#	144042
#	166156
#	188247
#
# Disc length: 2621 seconds
#
# Revision: 0
# Processed by: cddbd v1.5PL3 Copyright (c) Steve Scherf et al.
# Submitted via: dBpowerAMP V4.0
#
DISCID=6a0a3b0a
DTITLE=Shaan - Shankar Mahadevan/Swapnil - Tujea Vinnem
DYEAR=1900
DGENRE=
TTITLE0=Tujea Vinnem
TTITLE1=Mog tujo go
TTITLE2=Hanve nhai ge Saibini
TTITLE3=Panchvi choli
TTITLE4=Saanj Pishi
TTITLE5=Neel Rangan
TTITLE6=Sallore Yo
TTITLE7=Nach go Nach
TTITLE8=Yo re Saiba
TTITLE9=Music Medley
EXTD=
EXTT0=
EXTT1=
EXTT2=
EXTT3=
EXTT4=
EXTT5=
EXTT6=
EXTT7=
EXTT8=
EXTT9=
PLAYORDER=
